<svg id="visual" viewBox="0 0 960 540" width="960" height="540" xmlns="http://www.w3.org/2000/svg" xmlns:xlink="http://www.w3.org/1999/xlink" version="1.1"><rect x="0" y="0" width="960" height="540" fill="#ffffff"></rect><path d="M0 323L137 395L274 363L411 399L549 363L686 341L823 323L960 360L960 541L823 541L686 541L549 541L411 541L274 541L137 541L0 541Z" fill="#e3a8a1"></path><path d="M0 402L137 373L274 384L411 371L549 374L686 394L823 368L960 390L960 541L823 541L686 541L549 541L411 541L274 541L137 541L0 541Z" fill="#e0958b"></path><path d="M0 430L137 419L274 402L411 410L549 419L686 412L823 410L960 448L960 541L823 541L686 541L549 541L411 541L274 541L137 541L0 541Z" fill="#db8175"></path><path d="M0 462L137 442L274 448L411 447L549 457L686 435L823 469L960 485L960 541L823 541L686 541L549 541L411 541L274 541L137 541L0 541Z" fill="#d56d5f"></path><path d="M0 496L137 478L274 472L411 502L549 514L686 509L823 476L960 503L960 541L823 541L686 541L549 541L411 541L274 541L137 541L0 541Z" fill="#ce584a"></path></svg>